<svg width="1154" height="163" viewBox="0 0 1154 163" fill="none" xmlns="http://www.w3.org/2000/svg">
<path d="M623.377 229.175C623.408 191.761 622.815 155.547 624.253 119.412C624.869 103.951 629.716 88.6558 632.94 72.2529C653.504 27.5952 688.041 6.49131 736.313 6.93564C757.236 7.12822 778.123 5.43787 797.963 15.4818C829.722 31.5593 848.389 55.8309 849.525 91.7087C851.357 149.596 852.769 207.497 854.301 265.394C854.357 267.506 853.82 269.633 853.396 273.087C843.62 273.087 834.356 273.087 823.611 272.464C821.716 271.258 821.176 270.827 820.514 270.548C820.319 223.615 820.827 176.664 819.568 129.759C819.092 112.03 815.349 94.2346 811.576 76.7922C808.594 63.0058 798.982 52.6854 785.567 48.5441C752.785 38.4239 720.014 35.7818 689.26 55.5219C671.24 67.0886 661.772 83.2611 661.444 104.994C660.729 152.251 659.417 199.499 658.533 247.987C658.716 256.645 658.716 264.065 658.716 272.323C646.579 272.323 636.119 272.323 623.576 272.323C623.576 258.32 623.576 244.363 623.377 229.175Z" fill="black"/>
<path d="M1120.78 7.37496C1130.96 7.37496 1141.15 7.37496 1153.04 7.37496C1153.04 12.8196 1153.04 17.5337 1153.04 22.2477C1153.03 60.359 1154.37 98.5344 1152.53 136.559C1151.31 161.771 1146.5 186.963 1141.31 211.757C1139.43 220.74 1131.79 228.539 1126.37 237.697C1095.3 272.16 1054.84 278.621 1013.33 272.446C963.902 265.094 932.567 236.14 925.508 183.114C921.048 149.608 922.766 115.295 921.521 80.1116C921.329 55.4756 921.329 32.0728 921.329 7.82001C933.587 7.82001 944.083 7.82001 956.43 7.82001C956.43 12.6114 956.415 17.3388 956.432 22.0662C956.609 69.9706 956.451 117.879 957.076 165.778C957.613 206.944 985.715 236.714 1027.01 241.052C1064.66 245.007 1098.39 228.93 1109.66 198.141C1115.55 182.029 1117.3 163.818 1117.74 146.476C1118.89 101.702 1118.26 56.8837 1118.94 10.5756C1120.11 8.61177 1120.52 8.04741 1120.78 7.37496Z" fill="black"/>
<path d="M365.577 10.7686C389.628 6.50232 413.358 -1.27527 436.498 0.178498C485.435 3.25307 530.186 28.959 549.01 83.2664C554.92 100.314 555.965 119.018 559.145 138.109C481.253 139.254 403.452 139.254 322.786 139.254C323.908 148.451 324.079 156.549 325.967 164.234C337.063 209.399 375.369 246.444 425.687 243.595C461.191 241.584 491.209 227.624 512.068 197.57C523.832 180.619 523.964 180.688 542.734 190.742C545.407 192.174 547.953 193.841 551.3 195.842C532.363 235.676 501.96 260.402 458.362 270.804C385.483 281.16 329.219 265.426 296.754 184.704C269.819 117.733 304.423 40.5784 365.577 10.7686ZM458.682 110.452C479.495 110.452 500.307 110.452 521.386 110.452C511.95 56.7928 474.646 32.0776 407.716 33.5598C372.231 34.3456 333.837 71.1436 328.997 110.453C371.45 110.453 413.723 110.453 458.682 110.452Z" fill="black"/>
<path d="M153.584 220.818C146.663 235.545 140.019 249.426 133.004 263.12C131.153 266.732 128.16 269.769 125.692 273.07C122.701 269.641 118.711 266.669 116.868 262.715C84.081 192.4 51.5662 121.961 18.9627 51.5623C13.2177 39.1577 7.3357 26.8156 0.5 12.2824C12.1117 12.2824 21.8375 11.3224 31.1952 12.7435C35.0693 13.3319 39.4935 18.4049 41.3977 22.4803C68.08 79.585 94.3659 136.872 120.775 194.102C121.468 195.603 122.463 196.967 124.825 200.916C129.614 190.681 133.539 182.293 138.008 173.071C159.325 127.636 180.235 83.0958 200.821 38.4096C213.826 10.1806 213.609 10.0826 248.628 13.2481C216.798 82.5566 185.26 151.229 153.584 220.818Z" fill="black"/>
</svg>
