<svg width="84" height="20" viewBox="0 0 84 20" fill="none" xmlns="http://www.w3.org/2000/svg">
<path d="M45.3787 16.6962C45.381 13.9704 45.3378 11.3321 45.4426 8.69957C45.4874 7.5732 45.8405 6.45888 46.0754 5.26387C47.5736 2.0104 50.0897 0.472914 53.6065 0.505285C55.1308 0.519316 56.6525 0.396168 58.0979 1.1279C60.4116 2.2992 61.7716 4.06748 61.8543 6.68129C61.9879 10.8986 62.0907 15.1169 62.2023 19.3349C62.2064 19.4887 62.1673 19.6437 62.1364 19.8953C61.4242 19.8953 60.7492 19.8953 59.9665 19.8499C59.8284 19.7621 59.7891 19.7307 59.7408 19.7103C59.7266 16.2911 59.7636 12.8706 59.6719 9.45341C59.6372 8.16175 59.3645 6.86531 59.0897 5.59457C58.8724 4.59019 58.1721 3.83831 57.1948 3.53661C54.8065 2.79931 52.4191 2.60683 50.1785 4.04496C48.8657 4.88763 48.176 6.06585 48.152 7.64921C48.0999 11.092 48.0043 14.5342 47.9399 18.0667C47.9533 18.6974 47.9533 19.238 47.9533 19.8397C47.0691 19.8397 46.307 19.8397 45.3932 19.8397C45.3932 18.8195 45.3932 17.8027 45.3787 16.6962Z" fill="white"/>
<path d="M81.6159 0.537291C82.358 0.537291 83.1001 0.537291 83.9662 0.537291C83.9662 0.933955 83.9663 1.27739 83.9662 1.62082C83.9655 4.39736 84.0632 7.17857 83.9294 9.94879C83.8407 11.7856 83.4898 13.6209 83.1117 15.4272C82.9748 16.0817 82.4181 16.6498 82.0238 17.3171C79.7601 19.8278 76.8123 20.2985 73.7882 19.8486C70.1872 19.313 67.9043 17.2036 67.39 13.3405C67.0651 10.8995 67.1902 8.39967 67.0995 5.83641C67.0855 4.04159 67.0855 2.33661 67.0855 0.569714C67.9786 0.569714 68.7433 0.569714 69.6428 0.569714C69.6428 0.918782 69.6417 1.26319 69.6429 1.6076C69.6558 5.0976 69.6443 8.58792 69.6898 12.0775C69.7289 15.0766 71.7763 17.2455 74.7851 17.5615C77.5279 17.8496 79.985 16.6784 80.8058 14.4352C81.2352 13.2614 81.3628 11.9347 81.395 10.6713C81.4782 7.40933 81.4325 4.14417 81.4822 0.77047C81.5671 0.627397 81.597 0.586281 81.6159 0.537291Z" fill="white"/>
<path d="M26.5971 0.784531C28.3493 0.473717 30.0782 -0.0929079 31.764 0.0130042C35.3292 0.236998 38.5894 2.10976 39.9609 6.06624C40.3914 7.30821 40.4675 8.67084 40.6992 10.0617C35.0245 10.1451 29.3564 10.1451 23.4797 10.1451C23.5614 10.8152 23.5739 11.4052 23.7114 11.965C24.5197 15.2554 27.3105 17.9543 30.9763 17.7467C33.5629 17.6003 35.7498 16.5832 37.2695 14.3936C38.1266 13.1587 38.1362 13.1637 39.5036 13.8962C39.6984 14.0006 39.8839 14.122 40.1277 14.2678C38.7481 17.1698 36.533 18.9712 33.3568 19.729C28.0473 20.4834 23.9483 19.3372 21.5831 13.4563C19.6208 8.57722 22.1418 2.95628 26.5971 0.784531ZM33.3801 8.04678C34.8964 8.04678 36.4126 8.04678 37.9483 8.04678C37.2609 4.13755 34.5432 2.33697 29.6671 2.44495C27.0819 2.5022 24.2847 5.18306 23.9321 8.04686C27.025 8.04686 30.1047 8.04686 33.3801 8.04678Z" fill="white"/>
<path d="M11.1527 16.0873C10.6485 17.1603 10.1644 18.1715 9.65334 19.1692C9.51854 19.4323 9.30048 19.6536 9.12066 19.8941C8.90276 19.6443 8.6121 19.4278 8.47777 19.1397C6.08916 14.017 3.72035 8.88528 1.34507 3.75649C0.926531 2.85277 0.498004 1.95361 0 0.894815C0.84595 0.894815 1.55451 0.824875 2.23625 0.928411C2.51849 0.971278 2.84081 1.34086 2.97954 1.63777C4.92343 5.79804 6.83845 9.97157 8.76246 14.141C8.81292 14.2503 8.88542 14.3497 9.05749 14.6374C9.4064 13.8917 9.69235 13.2807 10.0179 12.6088C11.5709 9.29869 13.0943 6.05381 14.5941 2.79827C15.5415 0.741694 15.5257 0.73455 18.077 0.965167C15.758 6.01453 13.4604 11.0176 11.1527 16.0873Z" fill="white"/>
</svg>
