<svg width="55" height="40" viewBox="0 0 55 40" fill="none" xmlns="http://www.w3.org/2000/svg">
<path d="M14.1142 7.46634C23.0972 9.99396 32.4216 11.7233 40.3163 17.031C46.3188 21.0666 51.4152 26.0411 52.8482 33.6895C52.9952 34.4522 53.4107 35.1616 53.5577 35.9244C53.8081 37.2099 54.7811 39.0988 52.8335 39.4175C51.5482 39.6264 50.012 38.3923 48.6342 37.7289C48.4352 37.6317 48.4097 37.0874 48.3791 36.7387C47.5657 27.5325 41.6728 22.3427 33.8937 19.0878C28.8648 16.9829 23.4794 15.7172 18.244 14.1316C17.5936 13.9336 16.8528 13.9654 16.1589 14.0158C12.5523 14.2635 10.7462 12.2377 11.5209 8.48374C10.1218 8.77663 8.81669 9.04876 6.9158 9.44385C8.9294 11.9111 10.6372 13.9221 12.2509 16.0117C14.0929 18.4056 15.9606 20.7977 17.5761 23.3437C17.9945 24.005 17.8245 25.4227 17.3577 26.1244C17.0869 26.5407 15.3901 26.622 14.8999 26.2011C12.9314 24.488 11.0351 22.6342 9.37251 20.616C6.43797 17.0594 3.55863 13.435 0.94213 9.63811C0.199188 8.56775 0.0174286 6.65929 0.414473 5.40454C0.677037 4.58614 2.45542 3.77335 3.55576 3.77324C7.79408 3.77068 11.6594 2.55332 15.3441 0.603522C16.9782 -0.258596 18.2952 0.0803774 19.2213 1.46238C20.2329 2.96775 20.1061 4.46801 18.2749 5.41618C16.8991 6.12799 15.4943 6.79008 14.107 7.47879L14.1142 7.46634Z" fill="white"/>
</svg>
