<svg width="119" height="56" viewBox="0 0 119 56" fill="none" xmlns="http://www.w3.org/2000/svg">
<path d="M2.81976 29.3769C0.311594 28.5723 0.017538 25.7806 0.000240356 23.1264C-0.0213818 19.6745 1.41864 17.199 3.17868 15.755C6.51281 13.0251 9.88587 10.144 13.4535 8.44559C18.4093 6.09392 23.5337 4.49861 28.6409 3.09585C33.1988 1.8375 37.8216 0.971099 42.4401 0.482885C47.1754 -0.0122046 51.9452 -0.108499 56.6891 0.111541C62.3844 0.379715 68.0839 0.991703 73.7619 1.78935C77.4939 2.31194 81.2042 3.30212 84.9016 4.27855C90.2639 5.70193 95.6522 6.98779 100.941 8.9269C105.901 10.7422 110.68 13.6371 114.714 18.8218C117.983 23.0163 119.705 28.6824 118.727 35.2354C118.187 38.8592 116.626 41.2246 114.645 42.4967C111.034 44.8072 107.358 47.042 103.592 48.541C95.1202 51.9241 86.4238 53.0862 77.7447 54.3858C64.9617 56.2974 52.1528 56.0705 39.3395 55.8711C30.8204 55.7404 22.3316 54.709 13.9508 52.2335C11.3994 51.4771 8.70097 50.9683 6.54741 48.1765C6.262 47.8052 5.8901 47.4683 5.75605 46.9801C5.56145 46.2649 5.37982 45.3435 5.51388 44.6765C5.59172 44.2983 6.35281 43.9545 6.73336 44.092C8.27718 44.649 9.77342 45.5636 11.3259 46.038C14.1238 46.8976 16.939 47.6402 19.7628 48.2316C23.3737 48.9879 26.989 49.6824 30.6172 50.1294C33.7005 50.5076 36.8054 50.597 39.8974 50.6382C45.264 50.7139 50.6349 50.7345 56.0015 50.6176C61.0092 50.5076 66.0212 50.3426 71.0202 49.9162C74.4062 49.6274 77.775 48.8298 81.1524 48.2934C83.6519 47.8946 86.1687 47.7089 88.6509 47.1382C91.5093 46.485 94.3202 45.1304 97.183 44.7934C99.7387 44.4909 102.243 43.8651 104.63 42.6274C107.921 40.9221 111.185 38.9417 114.286 36.5144C115.934 35.2217 117.162 30.8828 115.7 27.314C113.685 22.3906 110.736 19.3513 107.445 17.6597C101.936 14.8336 96.3181 12.31 90.6358 10.5978C80.7632 7.61353 70.7608 5.78447 60.7108 5.29626C54.0079 4.9662 47.2748 5.0831 40.5806 5.72947C31.9188 6.57525 23.3175 8.58998 15.0622 13.0733C11.78 14.8542 8.6707 17.481 5.53117 19.8876C4.74845 20.4859 4.07384 21.593 3.49437 22.6657C2.81543 23.924 2.1884 25.3061 2.78084 27.204C2.95382 27.761 2.80679 28.5655 2.80679 29.3837L2.81976 29.3769Z" fill="white" fill-opacity="0.32"/>
</svg>
