<svg width="99" height="24" viewBox="0 0 99 24" fill="none" xmlns="http://www.w3.org/2000/svg">
<path d="M53.4821 19.5507C53.4847 16.3589 53.4338 13.2695 53.5573 10.1869C53.6101 8.86797 54.0263 7.56314 54.3032 6.16382C56.0689 2.35412 59.0343 0.553768 63.1791 0.591672C64.9756 0.608102 66.7691 0.463899 68.4726 1.32074C71.1994 2.69229 72.8022 4.76288 72.8998 7.82358C73.0571 12.7619 73.1783 17.7014 73.3099 22.6405C73.3147 22.8207 73.2686 23.0022 73.2321 23.2968C72.3928 23.2968 71.5973 23.2968 70.6748 23.2436C70.512 23.1407 70.4657 23.104 70.4088 23.0802C70.3921 19.0764 70.4357 15.071 70.3276 11.0696C70.2867 9.55715 69.9654 8.03906 69.6414 6.55106C69.3854 5.37496 68.56 4.49454 67.4082 4.14125C64.5934 3.2779 61.7796 3.05251 59.139 4.73652C57.5917 5.72326 56.7788 7.10292 56.7506 8.95698C56.6892 12.9884 56.5765 17.0191 56.5006 21.1556C56.5164 21.8941 56.5164 22.5271 56.5164 23.2316C55.4742 23.2316 54.5761 23.2316 53.4991 23.2316C53.4991 22.037 53.4991 20.8464 53.4821 19.5507Z" fill="black"/>
<path d="M96.1902 0.62915C97.0648 0.62915 97.9394 0.62915 98.9602 0.62915C98.9602 1.09363 98.9603 1.49578 98.9602 1.89793C98.9594 5.14917 99.0745 8.40587 98.9168 11.6497C98.8122 13.8005 98.3986 15.9496 97.9531 18.0647C97.7917 18.8311 97.1356 19.4964 96.6709 20.2777C94.0029 23.2177 90.5288 23.7688 86.9647 23.2421C82.7206 22.6149 80.03 20.1449 79.4239 15.6212C79.041 12.7629 79.1885 9.83574 79.0816 6.83425C79.0651 4.73257 79.0651 2.7361 79.0651 0.667117C80.1176 0.667117 81.0189 0.667117 82.079 0.667117C82.079 1.07586 82.0777 1.47916 82.0792 1.88244C82.0944 5.96912 82.0808 10.0562 82.1344 14.1424C82.1805 17.6542 84.5935 20.1939 88.1396 20.564C91.3722 20.9013 94.2681 19.5298 95.2354 16.9032C95.7415 15.5287 95.8918 13.9752 95.9298 12.4957C96.0279 8.67608 95.974 4.85269 96.0326 0.902196C96.1326 0.734661 96.1679 0.686516 96.1902 0.62915Z" fill="black"/>
<path d="M31.3466 0.918661C33.4117 0.554707 35.4493 -0.108792 37.4361 0.0152275C41.638 0.277517 45.4804 2.47046 47.0967 7.10338C47.6041 8.55768 47.6939 10.1533 47.9669 11.7819C41.2789 11.8796 34.5987 11.8796 27.6725 11.8796C27.7688 12.6642 27.7835 13.3551 27.9456 14.0106C28.8983 17.8636 32.1874 21.0239 36.5078 20.7808C39.5563 20.6093 42.1337 19.4184 43.9248 16.8545C44.9349 15.4085 44.9462 15.4143 46.5578 16.272C46.7874 16.3942 47.006 16.5363 47.2934 16.7071C45.6674 20.1053 43.0568 22.2146 39.3134 23.1021C33.0558 23.9855 28.2248 22.6432 25.4372 15.7569C23.1245 10.0436 26.0957 3.46171 31.3466 0.918661ZM39.3409 9.42252C41.1279 9.42252 42.9149 9.42252 44.7248 9.42252C43.9146 4.84494 40.7116 2.73651 34.9648 2.86295C31.9179 2.92999 28.6213 6.06919 28.2057 9.42261C31.8509 9.42261 35.4806 9.42261 39.3409 9.42252Z" fill="black"/>
<path d="M13.1443 18.8377C12.55 20.0941 11.9795 21.2782 11.3772 22.4465C11.2183 22.7546 10.9613 23.0137 10.7493 23.2953C10.4925 23.0028 10.15 22.7493 9.99166 22.412C7.17651 16.4135 4.3847 10.4044 1.58526 4.39873C1.09198 3.3405 0.586933 2.28761 0 1.0478C0.997012 1.0478 1.8321 0.965902 2.63558 1.08714C2.96822 1.13734 3.3481 1.57011 3.5116 1.91777C5.80262 6.78931 8.05961 11.6764 10.3272 16.5586C10.3867 16.6867 10.4721 16.803 10.6749 17.1399C11.0861 16.2668 11.4231 15.5512 11.8068 14.7645C13.6372 10.8885 15.4326 7.08882 17.2002 3.27669C18.3168 0.8685 18.2982 0.860134 21.305 1.13018C18.572 7.04282 15.864 12.9012 13.1443 18.8377Z" fill="black"/>
</svg>
